<?xml version="1.0" encoding="UTF-8"?>
<svg id="Capa_1" data-name="Capa 1" xmlns="http://www.w3.org/2000/svg" viewBox="0 0 2560 1440">
  <defs>
    <style>
      .cls-1 {
        fill: #fdfefe;
      }

      .cls-1, .cls-2 {
        stroke-width: 0px;
      }

      .cls-2 {
        fill: #787b7f;
      }
    </style>
  </defs>
  <path class="cls-2" d="M1355.49,931.71c1.64,10.6.41,21.59.76,32.44.13,3.96-.17,7.93.06,11.88.45,7.65,3.05,10.66,10.55,10.71,27.98.2,55.97.09,85.35.08,1.66,0,3.01-1.35,3.01-3.01v-19.17c0-2.73,3.35-4.04,5.2-2.05,4.63,4.97,8.75,8.74,11.41,14.27,3.4,7.06,9.9,10.32,19.36,10.29,135.36-.48,270.72-.23,406.09-.46,15.28-.03,30.07-4.38,44.56-9.09,12.11-3.93,12.34-4.09,12.36,7.4.08,40.94.03,81.88.03,122.82,0,69.99,0,139.98,0,209.98,0,4.62.51,9.3-.07,13.85-.53,4.1-3.55,7.15-7.69,7.64-4.55.55-9.23.07-13.85.07-405.43,0-810.85-.04-1216.28.1-21.05,0-21.77-.34-21.75-21.64.19-202.05.23-404.11-.03-606.16-.03-23.72,2.75-22.16,21.54-21.83,13.86.24,27.73.07,41.91.05,1.2,0,2.29-.72,2.76-1.82,2.96-6.93,5.78-13.89,9-20.65,4.6-9.65,5.29-9.51,16.34-9.24,7.28.18,10.94,3.41,11.24,10.36.13,2.94,2.22,4.62,3.09,6.94,5.36,14.3,5.26,14.39,19.79,14.4,154.51.02,309.02,0,463.53,0h9.31c1.39,0,2.59-.96,2.93-2.31,1.48-5.8-.06-11.55.82-17.08.37-2.32,3.21-3.29,4.96-1.72,4.05,3.63,8.33,7.04,9.98,11.44,3.31,8.82,8.85,9.78,16.57,9.75,39.62-.16,79.24-.07,118.85-.09,3.75,0,8.35,1.12,8.11-5.23-.24-6.32,1.37-8.35,7.97-4.85,13.74,7.28,28.57,10.39,44.26,10.19,27.07-.34,54.15-.48,81.21.17,6.9.17,8.25-3.2,11.05-7.87,2.73-4.56,2.79-9.68,4.89-14.36,3.25-7.25,7.07-9.8,14.5-9.78,5.54.02,9.8.12,11.7,6.71,1.21,4.17,5.36,7.61,6.15,11.76.87,4.6.93,8.99,5.16,12,3.62,2.58,7.65,1.17,11.44,1.19,39.26.13,78.51.08,119.25.08,1.66,0,3.01-1.35,3.01-3.01v-19.22c0-2.71,3.3-4.03,5.19-2.08,5.12,5.31,7.51,11.35,10.66,16.63,3.51,5.88,7.41,7.88,14.05,7.8,26.84-.31,53.69-.14,80.49-.13,1.53,0,2.82-1.14,2.99-2.66,2.77-25.08,3.57-169.5,1.07-211.92-.09-1.59-1.41-2.83-3-2.83h-92.17c-1.66,0-3.01,1.35-3.01,3.01v20.32c0,2.9-3.7,4.12-5.42,1.79-5.15-6.95-9.65-12.87-13.2-19.31-2.52-4.56-4.4-6.7-9.8-6.64-26.03.27-52.07.14-79.56.13-1.66,0-3.01,1.35-3.01,3.01v24.91c0,3.03-3.98,4.15-5.57,1.57-4.62-7.53-8.6-13.64-9.53-20.18-1.44-10.12-6.16-9.37-12.96-9.36-48.86.1-97.72,0-146.59.11-14.24.03-27.56,3.97-40.28,10.34-6.15,3.08-11.6,3.74-10.98-6.1.22-3.48-2.16-4.27-5.05-4.28-3.96,0-7.92-.02-11.89-.02-147.25,0-294.5,0-441.74,0-3.3,0-6.61.16-9.9-.04-4.8-.29-6.23,1.54-7.29,6.53-1.55,7.28-4.54,14.26-7.29,21.49-.79,2.08-3.46,2.59-5.01.99-5.01-5.2-4.69-12.84-6.66-18.9-2.54-7.8-6.25-10.21-13.8-10.16-32.26.2-64.52.09-97.82.09-1.4,0-2.64.97-2.94,2.33-1.86,8.41-.19,17.18-.75,26.03-.18,2.87-3.91,3.88-5.51,1.49-2.84-4.23-4.41-9.01-5.79-13.27-1.76-5.44-3.01-12-6.7-15.21-3.1-2.69-9.94-1.31-15.13-1.33-21.79-.1-43.58-.09-65.37-.02-11.91.04-12.14.53-16.52,11.46-9.12,22.74-18.59,45.34-27.67,68.1-.7,1.76-1.76,3.06-2.93,4.24-1.79,1.79-4.89.65-5.1-1.87-.23-2.76.39-5.6.39-8.3-.1-148.57-.09-297.14-.09-445.71,0-3.3-.04-6.6,0-9.9.09-6.19,3.4-9.51,9.42-9.93,3.94-.27,7.92-.04,11.88-.04,405.43,0,810.85.04,1216.28-.1,20.93,0,22.07-.1,22.05,21.34-.19,219.9-.12,439.8-.12,660.46,0,1.25-.78,2.37-1.95,2.82-6.06,2.34-12.68.71-18.93.71-246.29.14-492.59.23-738.88-.15-15.11-.02-26.27,2.35-33,17.56-3.85,8.71-7.67,8.26-14.63,1.15-.92-.94-1.67-2.15-2.74-2.84-5.74-3.66-5.31-13.1-11.82-14.79-6.78-1.76-14.31-.79-21.51-.79-60.09-.03-120.18-.02-180.26-.02-3.96,0-7.92.02-11.89,0-6.29-.03-9.65,3.17-10.04,9.35-.21,3.29-.02,6.6-.02,9.9,0,61.41-.02,122.82.02,184.22.01,17.84.26,18.15,17.05,18.16,65.37.06,130.74-.23,196.11.34,8.6.07,12.39-3.1,16.48-9.56,4.04-6.38,6.79-14.07,13.92-17.81,2.34,2.25,5.1,4.26,7.03,6.88,4.84,6.56,7.92,15.9,14.31,19.41,6.09,3.35,15.45.76,23.37.76,37.18,0,74.35,0,112.73,0,1.66,0,3.01-1.35,3.01-3.01,0-12.99.06-25.11-.04-37.24-.03-4.33.37-6.85,6.03-7.61"/>
  <path class="cls-2" d="M942.19,508.34c8.88,32.18,17.41,63.08,27.06,98.06,9.81-35.77,18.51-67.46,27.11-98.82h60.6c2.77,14.97,3.42,114.59.93,146.01h-34.4v-117.72c-.83-.08-1.65-.15-2.48-.23-5.85,20.16-11.78,40.29-17.52,60.47-4.81,16.92-9.64,33.81-15.39,50.47-1.75,5.07-2.23,7.56-8.14,7.8-27.87,1.12-28.17,1.39-35.74-24.34-10.04-34.09-19.55-68.33-31.01-102.26v125.56c-12.17,1.77-23.65.42-35.74.99v-145.99h64.71Z"/>
  <path class="cls-2" d="M1713.64,507.41c13.21,0,25.66.39,38.06-.16,6.26-.28,9.47,2.58,12.5,7.3,14.4,22.45,29.39,44.54,43.21,67.34,3.09,5.09,6.85,8.59,11.8,14.44v-88.07c12.11-1.65,23.54-.58,35.53-.79v145.14c-4.9,3.28-10.28,1.41-15.32,1.51-9.83.19-19.68-.3-29.52-.51-6-9.66-12.17-19.22-17.96-29.01-10.65-18.02-24.24-34.18-33.5-53.11-1.66-3.4-5.18-5.9-9.76-10.94v93.08h-35.04v-146.22Z"/>
  <path class="cls-2" d="M1126.78,597.63v24.58h82.58c0,8.67.22,16.4-.06,24.12-.31,8.79-2.75,11.3-11.81,11.37-26.41.19-52.82.07-79.22.07-6.6,0-13.21.2-19.8-.05-8.73-.34-11.28-2.86-11.46-11.74-.24-11.88-.06-23.77-.06-35.65,0-30.37-.08-60.74.03-91.11.05-13.82,1.59-15.28,15.85-15.32,30.37-.09,60.74-.1,91.11,0,13.97.05,15.25,1.5,15.42,15.77.07,5.87.01,11.74.01,18.63h-82.04v24.55h77.39v34.78h-77.93Z"/>
  <path class="cls-2" d="M1483.3,897.5c15.28,17.66,34.38,31.91,47.24,53.68-13.83,0-26.91-.33-39.96.12-8.15.28-11.56-5.73-15.18-10.7-9.51-13.06-19.1-25.99-30.51-37.47-2.32-2.33-4.58-4.85-7.31-6.6-4.73-3.05-10.2.25-10.25,6.23-.15,15.7-.05,31.4-.05,47.75h-38.58v-149.7c24.03,0,48.22-.04,72.41.02,10.94.02,21.78-.47,32.45,3.77,21.54,8.57,32.92,33.57,26.9,56.1-4.36,16.34-12.74,27.28-28.82,32.44-2.93.94-5.55,2.87-8.34,4.36ZM1423.91,868.06c15.9,0,30.28.37,44.62-.13,9.48-.33,18.56-9.97,18.18-18.02-.3-6.34-11.25-17.05-18.41-17.41-7.2-.36-14.43-.28-21.64-.03-7.61.26-15.43-1.24-22.75,1.2v34.39Z"/>
  <path class="cls-2" d="M1373.05,654.22c-15.09,0-28.8.07-42.5-.08-1.78-.02-4.77-.71-5.14-1.8-3.78-11.14-15.67-15.63-20.67-25.61-4.23-8.45-12.34-13.43-17.99-20.58-2.85-3.61-6.55-3.61-10.6-3.61-4.46,0-7.4.46-7.27,6.24.33,14.46.11,28.94.11,44.43h-33.47c-3.23-12.99-4.2-93.46-1.44-145.63,31.36,0,62.83-.3,94.29.15,11.99.17,33.29,17.56,34.98,29.9,1.72,12.59,3.09,25.79-3.15,38.23-5.73,11.42-14.51,18.73-26.41,22.84-6.73,2.33-7.36,4.04-2.26,8.77,14.86,13.77,26.68,30.18,41.51,46.76ZM1269.22,574.66c13.29,0,24.97.17,36.65-.04,18.04-.32,24.38-7.66,22.6-24.98-.63-6.12-3.81-10.07-9.36-10.18-16.67-.35-33.43-1.27-49.89.53v34.68Z"/>
  <path class="cls-2" d="M980.72,860.34h82.04c0,7.52.24,13.99-.06,20.44-.38,8.22-3.26,10.86-12.33,10.92-23,.16-46,.05-69.79.05v26.81h80.79c2.86,10.94,1.16,21.11,1.58,31.92h-118v-147.67c14.03-2.62,87.54-3.18,117.42-.73v30.34h-81.65v27.91Z"/>
  <path class="cls-2" d="M1665,859.54c0,6.39.02,10.28,0,14.16-.11,17.68-.3,17.96-17.19,18.03-21.12.08-42.24.02-63.39.02-4.45,3.62-1.92,8.57-2.32,12.89-.41,4.46-.09,8.99-.09,14.47h82.26v30.02c-13.74,2.7-85.5,3.34-117.39.84v-148.39h117.32v29.85c-7.77,2.37-16.93.6-25.88.92-9.23.33-18.48.07-27.72.07h-27.95v27.12h82.33Z"/>
  <path class="cls-2" d="M1685.42,951.18v-31.61c23.81,0,47.35.07,70.88-.07,3.8-.02,8.05,1.52,11.34-1.49,4.25-3.89,9.93-7.18,8.48-14.38-1.02-5.04-8.46-11.63-14.01-11.76-12.53-.31-25.08.1-37.61-.17-19.18-.41-32.81-9.51-40.81-26.99-7.62-16.65-.84-49.78,20.83-57.47,7.06-2.5,13.67-6.55,21.64-6.5,25.08.17,50.16.01,75.23.1,5.37.02,8.4,4.06,6.27,8.72-2.89,6.32-7.6,11.71-8.08,19.21-.3,4.61-4.67,3.59-7.72,3.6-19.14.07-38.28-.12-57.41.1-11.8.13-14.65,3.58-14.05,15.62.42,8.5,3.22,11.75,11.74,11.96,13.85.33,27.8-.84,41.55.39,15.03,1.35,28.46,6.83,35.08,22.32,8.52,19.95,2.25,57.58-26.72,64.8-7.55,1.88-14.74,3.76-22.57,3.69-24.3-.21-48.6-.08-74.06-.08Z"/>
  <path class="cls-2" d="M1952.11,800.81c-6.02,12.37-10.67,21.93-15.38,31.61-19.36,0-38.44-.08-57.52.07-3.8.03-8.11-1.57-11.35,1.37-4.24,3.84-10.01,7.05-8.59,14.3,1.13,5.77,8.81,11.78,15.79,11.91,12.51.23,25.06.55,37.55-.05,18.14-.87,29.51,9.92,37.48,23.42,9,15.24,4.3,37.22-7.16,49.84-10.03,11.04-22.56,17.2-36.97,17.66-25.56.81-51.17.23-77.59.23v-30.61c5.67-2.14,12.24-.86,18.59-.93,17.13-.18,34.26.19,51.39-.15,13.21-.26,17.86-5.46,16.62-17.25-.72-6.88-3.81-10.14-11.28-10.33-13.17-.34-26.35,0-39.53-.17-23.1-.29-35.82-11.32-40.53-34.83-7.22-35.97,20.36-55.61,44.8-55.99,26.88-.42,53.78-.1,83.68-.1Z"/>
  <path class="cls-2" d="M1644.11,507.62c20.23,47.78,40.52,95.7,60.81,143.64-6.2,1.93-32.33,4.27-36.18,2.98-4.71-1.58-6.47-5.37-7.99-9.99-2.34-7.12-4.07-17.05-9.29-19.95-6.6-3.66-16.44-1.6-24.89-1.73-10.54-.16-21.09.14-31.63-.1-6.5-.15-11.71.93-13.14,8.46-.22,1.17-1.38,2.13-1.86,3.29-2.62,6.36-3.47,15.81-8.14,18.39-6.12,3.38-15.22,1.56-23.04,1.58-16.96.05-16.84-.3-10.39-15.37,15.07-35.2,29.59-70.63,44.65-105.84,3.71-8.68,8.6-16.85,13-25.36h48.1ZM1638.19,594.5c-1.88-19.99-12.34-35.53-16.94-52.86-.56-2.09-2.9-2.5-4.78-1.95-1.01.3-2.26,1.53-2.47,2.54-2.74,12.96-9,24.58-14.03,36.65-2.31,5.54-3.5,10.58-.48,15.62h38.7Z"/>
  <path class="cls-2" d="M870.35,654.23c-13.13,0-23.56-.25-33.97.09-6.41.21-9.56-2.96-11.1-8.58-.17-.62.14-1.38-.07-1.96q-7.7-21.24-28.98-21.24c-11.87,0-23.75.42-35.59-.14-8.32-.39-12.66,2.37-15.98,10.42-2.85,6.9-3.78,17.23-9.01,19.99-6.74,3.56-16.59,1.25-25.11,1.42-3.82.07-7.64.01-13.98.01,21.57-50.48,42.2-98.73,62.76-146.83,14.07,0,27.27.48,40.42-.21,6.34-.33,8.52,2.19,11.25,7.36,6.49,12.29,10.87,25.47,16.76,38.01,12.25,26.11,22.48,53.17,33.54,79.83,2.64,6.36,5.3,12.72,9.09,21.83ZM786.64,546.14c-3.48-3.66-6.89-4.28-8.67.14-5.58,13.86-10.93,27.82-15.99,41.88-1.13,3.15-.33,6.52,4.43,6.51,12.37-.03,24.74,0,36.4,0"/>
  <path class="cls-2" d="M1229.87,800.81c-8.04,14.76-18.61,25.32-27.92,36.74-7.35,9.01-13.69,18.82-22.11,27.11-6.8,6.7-6.33,11.26-.17,19.24,14.54,18.83,29.44,37.38,44.15,56.07,1.94,2.47,5.44,3.91,5.4,9.33-6.58,3.85-14.4,1.68-21.62,1.67-8.34,0-19.53,3.96-24.31-2.18-4.48-5.75-10.91-10.61-13.75-18.27-1.91-5.15-8.87-8.4-10.9-13.54-2.12-5.4-6.17-8.18-10.08-12.8-10.09,13.73-19.91,27.26-29.93,40.63-3.21,4.28-7,6.97-13.25,6.56-11.04-.73-22.16-.21-35.58-.21,7.8-15.44,18.48-26.06,28.16-37.55,9.9-11.75,18.69-24.45,28.75-37.78-10.91-13.97-22.17-28.66-33.76-43.09-4.02-5-8.93-9.09-11.73-15.26-2.32-5.12-11.61-8.33-9.55-13.55,2.81-7.1,11.48-2.17,17.53-3.07,17.67-2.63,31.46,1.72,39.8,19.61,3.39,7.26,11.46,11.95,15.46,19.72,3.12,6.06,7.92,5.65,11.97-.59,7-10.78,14.25-21.28,23.04-30.74,5.17-5.57,10.19-9.22,18.59-8.31,9.71,1.05,19.63.24,31.79.24Z"/>
  <path class="cls-2" d="M1273.69,950.84h-33.89c-3.41-13.58-4.43-103.31-1.51-149.99,30.01,0,60.13.07,90.26-.05,7.58-.03,13.11,4.53,19.11,7.86,26.57,14.77,31.78,51.75,12.2,74.23-13.7,15.74-31.43,18.64-49.88,20.43-11.66,1.13-23.52.21-36.28.21v47.31ZM1273.56,868.1c16.8,0,31.81-.21,46.82.1,6.14.13,10.25-2.49,11.83-7.83,4.54-15.42-3.49-26.99-19.51-27.72-12.87-.59-25.79-.12-39.13-.12v35.57Z"/>
  <path class="cls-2" d="M1525.33,623.45c3.48,5.17-1.78,7.33-2.87,10.71-6.92,21.46-13.99,24.97-35.23,18.19-19.11-6.1-32.68-19.66-39.39-37.24-8.4-22.02-7.48-45.84-.25-68.37,5.55-17.29,32.59-41.88,56.86-39.6,15.68,1.47,31.62.28,48.59.28,2.6,9.94.82,20.14,1.45,31.8-13.28,0-25.65-.45-37.97.13-11.07.53-21.9,3.44-28.7,12.96-13.83,19.36-15.47,55.66,15.15,68.54,7.54,3.17,15.54-.64,22.35,2.59Z"/>
  <path class="cls-2" d="M1418.92,653.71h-34.18v-145.21c10.52-2.49,22.01-.44,34.18-1.21v146.42Z"/>
  <path class="cls-1" d="M1423.91,868.06v-34.39c7.32-2.44,15.14-.94,22.75-1.2,7.21-.25,14.44-.33,21.64.03,7.15.36,18.11,11.06,18.41,17.41.38,8.05-8.7,17.69-18.18,18.02-14.34.5-28.71.13-44.62.13Z"/>
  <path class="cls-1" d="M1269.22,574.66v-34.68c16.47-1.8,33.22-.87,49.89-.53,5.55.12,8.73,4.07,9.36,10.18,1.78,17.32-4.56,24.66-22.6,24.98-11.68.21-23.36.04-36.65.04Z"/>
  <path class="cls-1" d="M1638.19,594.5h-38.7c-3.01-5.05-1.82-10.09.48-15.62,5.02-12.07,11.29-23.68,14.03-36.65.21-1.01,1.46-2.24,2.47-2.54,1.89-.55,4.23-.15,4.78,1.95,4.6,17.33,15.06,32.87,16.94,52.86Z"/>
  <path class="cls-1" d="M802.8,594.66c-11.66,0-24.03-.02-36.4,0-4.76.01-5.56-3.36-4.43-6.51,5.06-14.06,10.41-28.02,15.99-41.88,1.78-4.42,5.19-3.8,8.67-.14,4.25,4.47,4.99,10.98,6,15.61,2.48,11.38,11.4,19.77,10.16,32.92Z"/>
  <path class="cls-1" d="M1273.56,868.1v-35.57c13.34,0,26.26-.47,39.13.12,16.02.74,24.05,12.3,19.51,27.72-1.58,5.35-5.69,7.97-11.83,7.83-15-.32-30.02-.1-46.82-.1Z"/>
</svg>