<?xml version="1.0" encoding="UTF-8"?>
<svg id="Capa_1" data-name="Capa 1" xmlns="http://www.w3.org/2000/svg" viewBox="0 0 250 250">
  <defs>
    <style>
      .cls-1 {
        fill: #787b7f;
      }
    </style>
  </defs>
  <path class="cls-1" d="m136.76,108.79h21.2c.19,0,.34.17.31.36-1.21,7.69-2.37,15.02-3.57,22.58-.02.15-.15.26-.31.26h-17.6c-.17,0-.31.14-.31.31v56.25c0,.17-.14.31-.31.31h-24.25c-.17,0-.31-.14-.31-.31v-56.12c0-.17-.14-.31-.31-.31h-20.15c-.17,0-.31-.14-.31-.31v-22.7c0-.17.14-.31.31-.31h20.02c.17,0,.31-.14.31-.31,0-4.31.05-8.28-.01-12.25-.09-6.11.07-12.15,2.28-17.98,4.33-11.41,13.86-17.7,26.01-17.05,5.68.3,11.36.53,17.03.76,1.29.05,2.37.09,2.36,1.86-.05,5.58-.02,11.16-.02,17.23,0,.17-.14.31-.31.31-3.04,0-5.9-.13-8.74.04-2.36.15-4.81.37-7.02,1.12-3.76,1.28-6.38,4-6.56,8.1-.25,5.77-.07,11.55-.07,17.85,0,.17.14.31.31.31Z"/>
</svg>