<?xml version="1.0" encoding="UTF-8"?>
<svg id="Capa_1" data-name="Capa 1" xmlns="http://www.w3.org/2000/svg" viewBox="0 0 250 250">
  <defs>
    <style>
      .cls-1 {
        fill: #787b7f;
      }
    </style>
  </defs>
  <path class="cls-1" d="m127.94,117.34c.6-.84,1.23-1.65,1.95-2.38,5.64-5.74,12.46-8.86,20.52-9.2,4.48-.19,8.82.44,12.92,2.32,3.2,1.47,6.08,3.44,8.58,5.94.73.73,1.36,1.56,1.9,2.44,2.57,4.17,4.52,8.58,5.18,13.48.11.8.17,1.61.17,2.42,0,15.4,0,30.8,0,46.21q0,.75-.76.75c-6.81,0-13.61,0-20.42,0q-.72,0-.72-.74c.01-11.15.02-22.3.03-33.45,0-1.99.03-3.99,0-5.98-.03-1.99-.39-3.93-1.19-5.77-1.85-4.27-5.23-6.51-9.71-7.23-2.45-.4-4.87-.19-7.26.45-4.24,1.13-7.07,3.83-8.73,7.83-.89,2.14-1.34,4.37-1.34,6.7,0,12.47,0,24.94,0,37.4q0,.79-.78.79c-6.77,0-13.54,0-20.31.01-.57,0-.71-.15-.71-.72.02-23.62.02-47.24,0-70.86,0-.59.17-.71.72-.7,6.39.02,12.79.02,19.18,0,.51,0,.67.12.66.65-.03,2.99-.01,5.98-.01,8.97,0,.21,0,.41,0,.62.04.02.09.04.13.06Z"/>
  <path class="cls-1" d="m94.8,143.21c0,11.77,0,23.54,0,35.31,0,.87.09.78-.79.78-6.94,0-13.88,0-20.81,0q-.73,0-.73-.74c0-23.6,0-47.2-.01-70.8,0-.53.09-.74.69-.74,6.99.03,13.99.02,20.98,0,.55,0,.68.16.68.69-.02,11.83-.01,23.66-.01,35.48Z"/>
  <path class="cls-1" d="m83.67,70.68c7.13.01,12.8,5.76,12.78,12.95-.02,7-5.82,12.7-12.89,12.68-7.03-.02-12.77-5.82-12.73-12.85.04-7.12,5.75-12.8,12.84-12.78Z"/>
</svg>