<?xml version="1.0" encoding="UTF-8"?>
<svg id="Capa_1" data-name="Capa 1" xmlns="http://www.w3.org/2000/svg" viewBox="0 0 2560 1440">
  <defs>
    <style>
      .cls-1 {
        fill: #4a4f54;
      }

      .cls-1, .cls-2, .cls-3 {
        stroke-width: 0px;
      }

      .cls-2 {
        fill: #fefefe;
      }

      .cls-3 {
        fill: #787b7f;
      }
    </style>
  </defs>
  <path class="cls-2" d="M1256.3,148.93c369.47,0,738.94.04,1108.41-.23,9.03,0,11.08,2.03,11.07,11.05-.27,348.1-.27,696.19,0,1044.29,0,9.02-2.04,11.06-11.07,11.05-738.94-.24-1477.88-.24-2216.81,0-9.03,0-11.08-2.03-11.07-11.05.27-348.1.27-696.19,0-1044.29,0-9.02,2.04-11.06,11.07-11.05,369.47.26,738.94.23,1108.41.23ZM393.6,442.94c.66,4.31.93,8.72,2.04,12.91,47.03,177.22,94.22,354.4,140.95,531.7,2.37,8.98,5.98,11.11,14.58,11.05,50.98-.37,101.97-.4,152.95.04,8.27.07,11.73-2.7,14.75-10.1,81.01-198.99,162.31-397.87,243.39-596.83,4.38-10.75,10.08-21.14,12.58-33.52-56.5,0-111.88.19-167.25-.22-7.54-.06-8.26,4.65-9.95,9.21-46.7,125.95-93.22,251.95-140.11,377.83-5.83,15.66-10.29,32.01-19.7,49.31-8.81-34.31-11.95-66.8-21.04-97.97-.52-4.36-.76-8.78-1.6-13.07-17.39-88.29-35-176.54-52.21-264.86-7.31-37.52-31.62-59.76-69.86-60-88.28-.56-176.57-.19-264.86-.2-4.42,0-8.73-.58-9.64,5.98-.94,6.86,3.8,6.72,7.9,7.85,37.14,10.24,73.58,22.53,108.53,38.79,20.19,9.39,41.02,17.79,58.54,32.11ZM2269.36,1000.36c-10.68-52.05-20.98-103.18-31.68-154.22-33.46-159.56-67.14-319.08-100.4-478.69-1.59-7.64-4.47-9.5-11.78-9.44-39.33.33-78.67.03-118.01.19-48.8.2-70.91,15.3-89.81,60.42-69.61,166.15-139.32,332.27-208.96,498.42-11.5,27.44-22.84,54.94-34.64,83.31,56.45,0,111.42-.13,166.39.17,6.45.03,7.8-3.23,9.51-8.05,9.59-27.03,19.55-53.94,29.12-80.98,2.06-5.81,4.26-9.26,11.6-9.12,65.36,1.24,130.75-1.51,196.12,1.44,8.67.39,10.58,4,11.94,10.96,4.13,21.12,8.51,42.2,13.09,63.22,4.88,22.39,5.02,22.36,28.04,22.36h129.46ZM1234.4,832.37c-7.54,45.62-14.77,90.09-22.36,134.51-1.22,7.12,1.74,9.6,7.81,11.91,33.79,12.83,68.79,20.21,104.56,24.83,64.57,8.33,128.84,8.34,191.51-10.82,88.44-27.04,152.11-78.83,166.53-176.02,8.76-59.02-9.47-108.58-54.4-148.29-27.57-24.36-59.71-41.12-92.19-57.69-25.89-13.21-52.6-25.61-72.79-47.64-15.36-16.75-15.15-39.33.36-56.04,10.13-10.91,22.98-17.25,36.99-21.3,30.59-8.84,61.72-7.41,92.8-3.66,32.33,3.91,62.96,13.77,92.78,28.81,1.03-5.16,2.01-9.41,2.7-13.7,6.07-37.4,11.67-74.89,18.41-112.17,1.72-9.5-.35-13.47-9.34-16.37-87.35-28.15-175.11-31.66-262.69-2.53-59.71,19.86-109.48,53.9-136.79,112.75-26.37,56.83-27.67,113.46,10.76,166.55,25.28,34.92,60.66,57.57,98.01,77.41,28.92,15.36,59.37,28,84.75,49.49,25.3,21.42,26.62,54.97,2.47,77.66-11.67,10.97-26.03,17.09-41.33,20.66-38.57,8.99-77.23,5.75-115.63-1.02-35.99-6.35-69.17-21.09-102.93-37.33ZM1126.47,357.78c-24.5,0-48.99-.02-73.49.02-4.67,0-8.69-.95-9.88,6.6-14.84,93.76-30.23,187.43-45.41,281.14-18.49,114.22-36.85,228.47-55.48,342.67-1.39,8.53.81,10.87,9.55,10.79,45.78-.42,91.57-.71,137.34.12,13.35.24,19.95-2.63,19.66-17.07-.15-7.41,2.61-14.86,3.8-22.33,13.95-87.07,27.7-174.17,41.82-261.21,17.94-110.63,36.14-221.22,54.34-331.81,1.07-6.47,0-9.23-7.55-9.09-24.89.46-49.79.17-74.69.17Z"/>
  <path class="cls-3" d="M2269.36,1000.36h-129.46c-23.02,0-23.16.03-28.04-22.36-4.58-21.03-8.96-42.1-13.09-63.22-1.36-6.96-3.27-10.57-11.94-10.96-65.37-2.94-130.76-.2-196.12-1.44-7.35-.14-9.55,3.32-11.6,9.12-9.57,27.04-19.53,53.94-29.12,80.98-1.71,4.82-3.06,8.09-9.51,8.05-54.97-.3-109.94-.17-166.39-.17,11.79-28.38,23.14-55.88,34.64-83.31,69.64-166.14,139.34-332.26,208.96-498.42,18.9-45.12,41.01-60.22,89.81-60.42,39.34-.16,78.68.14,118.01-.19,7.31-.06,10.19,1.8,11.78,9.44,33.26,159.6,66.94,319.12,100.4,478.69,10.7,51.04,21,102.17,31.68,154.22ZM2019.74,534.86c-4.43,3.8-4.9,7.43-6.1,10.71-11.52,31.4-23.09,62.79-34.62,94.2-14.96,40.74-29.95,81.47-44.71,122.29-1.22,3.39-7.19,9.85,2.68,9.91,43.68.28,87.37.12,132,.12-16.44-79.2-32.68-157.4-49.25-237.22Z"/>
  <path class="cls-3" d="M1234.4,832.37c33.75,16.25,66.94,30.98,102.93,37.33,38.4,6.77,77.07,10.02,115.63,1.02,15.3-3.57,29.66-9.69,41.33-20.66,24.15-22.69,22.83-56.24-2.47-77.66-25.38-21.49-55.83-34.13-84.75-49.49-37.36-19.84-72.74-42.49-98.01-77.41-38.43-53.09-37.13-109.72-10.76-166.55,27.31-58.85,77.08-92.89,136.79-112.75,87.58-29.13,175.35-25.62,262.69,2.53,8.99,2.9,11.06,6.87,9.34,16.37-6.75,37.28-12.34,74.77-18.41,112.17-.7,4.29-1.68,8.54-2.7,13.7-29.81-15.04-60.45-24.91-92.78-28.81-31.09-3.76-62.21-5.19-92.8,3.66-14,4.05-26.86,10.39-36.99,21.3-15.51,16.71-15.72,39.29-.36,56.04,20.2,22.03,46.9,34.43,72.79,47.64,32.47,16.57,64.62,33.32,92.19,57.69,44.93,39.71,63.16,89.26,54.4,148.29-14.42,97.19-78.1,148.98-166.53,176.02-62.68,19.16-126.95,19.16-191.51,10.82-35.77-4.62-70.77-11.99-104.56-24.83-6.07-2.31-9.03-4.79-7.81-11.91,7.59-44.42,14.82-88.9,22.36-134.51Z"/>
  <path class="cls-3" d="M616.8,696.33c9.08,31.17,12.23,63.66,21.04,97.97,9.41-17.3,13.87-33.65,19.7-49.31,46.89-125.87,93.41-251.88,140.11-377.83,1.69-4.56,2.42-9.27,9.95-9.21,55.38.41,110.76.22,167.25.22-2.5,12.38-8.2,22.77-12.58,33.52-81.08,198.97-162.38,397.84-243.39,596.83-3.02,7.41-6.48,10.17-14.75,10.1-50.98-.44-101.97-.41-152.95-.04-8.6.06-12.21-2.06-14.58-11.05-46.73-177.3-93.92-354.48-140.95-531.7-1.11-4.19-1.38-8.6-2.04-12.91,58.02,33.77,108.1,76.77,150.23,128.98,30.53,37.84,53.82,79.91,72.97,124.41Z"/>
  <path class="cls-3" d="M1126.47,357.78c24.9,0,49.8.29,74.69-.17,7.55-.14,8.61,2.62,7.55,9.09-18.2,110.59-36.4,221.18-54.34,331.81-14.12,87.04-27.86,174.14-41.82,261.21-1.2,7.47-3.96,14.91-3.8,22.33.3,14.45-6.31,17.32-19.66,17.07-45.77-.83-91.56-.54-137.34-.12-8.74.08-10.94-2.26-9.55-10.79,18.63-114.2,36.99-228.45,55.48-342.67,15.17-93.71,30.56-187.38,45.41-281.14,1.2-7.55,5.22-6.6,9.88-6.6,24.5-.03,48.99-.02,73.49-.02Z"/>
  <path class="cls-1" d="M616.8,696.33c-19.14-44.5-42.43-86.57-72.97-124.41-42.14-52.22-92.21-95.22-150.23-128.98-17.52-14.32-38.35-22.72-58.54-32.11-34.95-16.26-71.39-28.55-108.53-38.79-4.1-1.13-8.85-.99-7.9-7.85.9-6.57,5.21-5.98,9.64-5.98,88.29,0,176.57-.36,264.86.2,38.24.24,62.55,22.48,69.86,60,17.21,88.32,34.83,176.57,52.21,264.86.85,4.3,1.08,8.71,1.6,13.07Z"/>
</svg>