<?xml version="1.0" encoding="UTF-8"?>
<svg id="Capa_1" data-name="Capa 1" xmlns="http://www.w3.org/2000/svg" viewBox="0 0 2560 1440">
  <defs>
    <style>
      .cls-1 {
        fill: #959da5;
      }

      .cls-1, .cls-2 {
        stroke-width: 0px;
      }

      .cls-2 {
        fill: #787b7f;
      }
    </style>
  </defs>
  <path class="cls-1" d="M1299.37,216.57c37.76-28.34,77.88-52.54,121.89-70.06,232.09-92.4,497.97-.61,620.76,223.11,33.32,60.71,52.67,125.64,58.77,194.57.16,1.8-.37,3.91,1.79,5.02v78.23c-4.5,14.53-4.25,29.81-7.09,44.64-31.53,164.39-120.41,288.22-270.92,360.42-180.06,86.38-354.27,66.9-517.45-48.53-2.58-1.83-5.16-3.67-7.74-5.51-5.86-7.63-14.21-12.47-21.22-18.82-79.35-71.82-132.09-159.37-155.7-264.02-15-66.51-16.15-133.49-3.28-200.31,20.51-106.54,70.91-196.92,149.83-271.46,9.9-9.35,21.48-16.8,30.35-27.27Z"/>
  <path class="cls-2" d="M1299.37,216.57c-8.87,10.47-20.44,17.92-30.35,27.27-78.93,74.54-129.32,164.92-149.83,271.46-12.86,66.83-11.72,133.81,3.28,200.31,23.6,104.65,76.35,192.19,155.7,264.02,7.01,6.35,15.35,11.19,21.22,18.82-100.86,77.82-215.05,112.61-341.98,104.51-221.96-14.16-412.39-183.92-451.93-402.09-40.46-223.23,64.53-439.93,268.72-538.09,180.73-86.87,355.55-67.29,519.11,49.21,2.07,1.47,4.05,3.05,6.08,4.58Z"/>
  <path class="cls-2" d="M606.88,1236.5c26.4-27.98,64.24-20.8,82.62,4.77,12.96-17.94,30.83-24.71,52.22-22.21,27.78,3.26,44.41,20.46,45.42,48.51.96,26.66.2,53.37.43,80.06.04,4.54-1.35,5.84-5.9,6.09-23.16,1.28-23.16,1.42-23.16-21.15,0-15.89.04-31.77-.03-47.66-.02-4.12-.16-8.27-.62-12.36-1.94-17.54-11.09-26.42-27.44-26.86-17.32-.47-29.73,9.34-32.31,25.86-.73,4.68-.9,9.49-.93,14.24-.1,20.02-.29,40.04.11,60.05.13,6.31-1.76,7.94-7.98,7.92-21.14-.07-21.12.19-21.14-21.31-.03-19.06.39-38.14-.29-57.18-.79-22.12-14.86-32.97-36.3-28.82-12.55,2.43-20.16,10.31-22.9,22.58-1.16,5.22-1.46,10.7-1.52,16.08-.19,15.88-.07,31.77-.07,47.66,0,22.99-1.06,23.78-24.24,20.94-3.88-.48-4.58-2.01-4.58-5.38.07-40.35-.92-80.74.66-121.03.44-11.29,13.26-3.26,20.14-5.17,3.66-1.02,8.75-1.5,7.87,5.5-.34,2.66-.05,5.4-.05,8.87Z"/>
  <path class="cls-2" d="M1994.93,1339.36c-28.17,29.06-69.38,17.61-87.79-1.79-25.32-26.69-25.19-73.04.25-99.67,18.59-19.46,59.92-30.39,88.3-.78,0-18.85,0-36.38,0-53.9q0-14.36,14.59-14.36c1.91,0,3.85.24,5.71-.04,6.66-1.02,8.48,1.61,8.45,8.32-.27,56.2-.25,112.4-.02,168.61.02,6.03-1.25,8.92-7.72,7.93-2.17-.33-4.44-.05-6.66-.05q-13.72,0-15.12-14.25ZM1957.63,1245.7c-23.24-.06-39.82,17.11-40.06,41.49-.25,24.83,16.33,42.8,39.68,43.03,23.05.22,40.31-18.1,40.17-42.64-.14-24.36-16.73-41.81-39.79-41.87Z"/>
  <path class="cls-2" d="M1728.98,1235.6c.94-13.69.95-13.27,19.42-13.86,7.89-.25,10.06,1.86,9.91,9.84-.52,28.58-.2,57.18-.2,85.77,0,6.99,0,13.98,0,20.97q0,15.28-15.57,15.28-12.73,0-13.53-14.62c-13.51,14.56-29.77,19.76-48.21,17.72-18.57-2.05-33.83-10.49-45.07-25.54-20.89-27.97-17.77-70.48,6.75-94.36,24.02-23.39,57.19-24.07,86.5-1.22ZM1731.05,1287.79c.02-24.55-16.2-41.91-39.35-42.11-23.57-.2-40.24,17.31-40.2,42.25.04,24.8,16.98,42.55,40.34,42.27,22.88-.27,39.18-17.9,39.2-42.4Z"/>
  <path class="cls-2" d="M919.4,1234.97q1.83-13.03,16.3-13.03,13.15,0,13.15,12.81c0,36.84-.16,73.69.15,110.53.06,6.53-1.49,9.46-8.31,8.38-2.17-.34-4.44-.05-6.66-.05q-13.24,0-14.36-14.41c-13.74,14.75-30.45,19.73-49.33,17.36-16.36-2.05-30.22-9.28-41.02-21.91-22.72-26.55-21.99-69.76,1.56-95.31,23.26-25.24,56.33-26.87,88.52-4.36ZM921.88,1288.09c.05-25.07-16.49-42.6-40-42.4-23.19.2-39.42,17.37-39.63,41.96-.22,24.57,16.88,42.69,40.15,42.56,22.94-.14,39.44-17.73,39.49-42.11Z"/>
  <path class="cls-2" d="M1318.74,1298.71c-13.98,0-27.97.28-41.94-.12-6.86-.19-7.32,2.52-5.51,7.98,6.24,18.84,26.08,28.38,49.29,23.39,7.5-1.61,14.86-4.03,20.94-8.75,4.95-3.84,7.65-2.76,9.82,2.48.12.28.4.5.57.76,10.83,16.29,10.88,16.53-7.47,24.9-17.61,8.03-36.08,9.87-54.93,5.68-37.6-8.36-58.46-48.37-46.89-89.54,10.07-35.84,46.93-55.44,82.67-43.78,33.89,11.06,44.39,45.42,42.46,73.2-.37,5.33-4.29,3.7-7.06,3.72-13.98.14-27.96.06-41.94.06ZM1304.04,1276.44c9.17,0,18.36-.2,27.52.08,5.02.15,6.82-1.11,5.53-6.48-3.79-15.74-15.83-25.57-32.05-25.68-17.17-.11-30.39,9.98-34.16,25.83-1.02,4.31-.51,6.49,4.68,6.33,9.48-.29,18.98-.08,28.47-.08Z"/>
  <path class="cls-2" d="M1033.19,1357.1c-17.72-.23-34.85-4-50.61-13.29-4.15-2.45-6.29-4.39-2.53-9.18,3.69-4.7,5.35-12.09,9.94-14.66,4.64-2.61,9.62,4.16,14.79,6.14,13.73,5.25,27.78,6.45,42.14,4.26,3.67-.56,7.33-2.09,10.65-3.84,4.51-2.38,7.15-6.43,6.73-11.68-.4-5.01-3.95-7.7-8.3-9.5-8.34-3.44-17.27-4.03-26.04-5.32-9.79-1.43-19.43-3.35-28.23-8.04-23.67-12.61-26.51-44.44-5.49-61.29,8.97-7.19,19.5-10.3,30.79-11.4,19.68-1.9,38.59.76,56.65,9.05,5.03,2.31,7.28,4.37,3.83,10.51-8.46,15.02-8.06,15.18-24.08,9.88-10.03-3.31-20.31-5.07-30.94-4.3-5.15.38-10.04,1.57-14.39,4.44-4.01,2.65-6.11,6.5-5.83,11.29.3,5.11,3.74,7.78,8.21,9.4,9.36,3.39,19.31,3.6,28.98,5.33,7.22,1.29,14.3,2.86,21.05,5.77,12.79,5.52,21.63,14.23,23.12,28.83,1.56,15.28-3.95,27.45-16.52,36.13-13.07,9.02-28.07,11.26-43.92,11.45Z"/>
  <path class="cls-2" d="M1140.27,1285.9c0-10.17-.38-20.37.14-30.52.32-6.12-1.92-8.08-7.57-7.22-.31.05-.64,0-.95,0-20.3-.25-20.15-.24-18.52-21.04.33-4.23,1.75-5.2,5.7-5.29,6.91-.16,16.61,3.23,19.98-1.52,3.49-4.93,1.16-14.07,1.19-21.36.07-17.04.04-16.53,17.59-17.24,8.87-.36,12.73,1.47,11.53,11.16-.93,7.52.13,15.26-.3,22.86-.29,5.2,1.67,6.45,6.54,6.32,11.44-.31,22.89.09,34.33-.19,4.62-.11,5.78,1.45,5.98,5.97.88,20.35,1.04,20.21-19.29,20.4-8.82.08-20.3-3.72-25.74,1.5-5.49,5.27-1.42,16.83-1.64,25.62-.28,11.12-.22,22.26-.01,33.38.31,16.39,8.31,22.99,24.52,20.55,1.89-.28,3.75-.68,5.64-.98,4.93-.78,11.47-6.72,13.53-4.12,4.29,5.41,5.62,13.21,7.96,20.09,1.15,3.41-1.83,4.32-4.04,5.38-17.07,8.13-34.72,10.24-52.72,3.76-15.76-5.67-21.94-18.68-23.13-34.16-.85-11.06-.16-22.23-.16-33.36-.19,0-.37,0-.56,0Z"/>
  <path class="cls-2" d="M1560.25,1357.02c-63.23-.35-82.96-59.22-63.76-100.98,20.91-45.48,81.42-44.51,106.68-24.64,1.59,1.25,4.52,2.1,2.84,5.04-3.62,6.33-7.19,12.72-11.27,18.75-2.24,3.31-4.53-.12-6.4-1.21-10.16-5.92-20.94-9.08-32.77-8.06-23.26,2-38.7,21.76-36.15,46.21,2.59,24.8,21.19,40.55,44.67,37.8,8.97-1.05,17.43-3.76,24.91-8.83,3.4-2.31,5.47-2.54,7.19,1.55.73,1.74,1.86,3.32,2.83,4.96,9.35,15.81,9.24,16.23-8.08,23.74-9.78,4.24-20.08,5.85-30.69,5.68Z"/>
  <path class="cls-2" d="M1426.16,1237.27c12.68-17.39,28.47-20.8,46.7-17.43,6.11,1.13,9.08,2.91,5.84,9.76-2.55,5.4-2.55,12.54-6.18,16.75-4.23,4.91-10.84-.57-16.55-.51-17.43.2-28.13,8.23-29.01,25.81-1.22,24.38-1.01,48.85-.7,73.28.09,7.29-1.98,8.98-9.02,8.85-19.82-.37-19.83-.04-19.83-19.77,0-34.6.18-69.2-.16-103.79-.06-6.64,1.65-9.39,8.38-8.33,1.86.29,3.8.04,5.71.04q14.01,0,14.82,15.33Z"/>
  <path class="cls-2" d="M1824.45,1237.27c12.93-17.04,28.55-20.97,46.76-17.43,5.76,1.12,9.51,2.47,6.12,9.63-2.56,5.4-2.57,12.51-6.17,16.8-4.27,5.09-10.87-.5-16.58-.43-17.27.21-27.17,7.55-29.05,24.85-2.63,24.37-.97,48.9-.83,73.35.05,8.08-2.14,10.01-9.98,9.77-18.84-.58-18.85-.16-18.85-18.89,0-34.65.29-69.3-.22-103.93-.12-7.96,2.47-10.12,9.62-9.08,1.87.27,3.81.04,5.72.04q13.08,0,13.46,15.33Z"/>
  <path class="cls-2" d="M2085.9,915.48c-3.82-2.97-.88-7.1-2.93-9.83q-6.39,9.7-12.18.03c-2.79,2.51.98,6.85-3.17,9.64-3.49-5.55-1.84-11.49-1.45-16.96.28-3.84,3.56-3.26,5.32-.78,1.97,2.78,3.17,6.11,4.74,9.29.78-.55,1.28-.79,1.64-1.17,2.87-2.97,2.05-10.72,7.5-9.21,4.77,1.32,1.4,7.78,2.05,11.9.32,2.05.73,4.43-1.54,7.08Z"/>
  <path class="cls-2" d="M2064.64,897.52c-13.45,2.38-5.9,12.41-10.42,18.09-5.66-5.08,2.98-16.21-8.9-18.09,6.02-2.37,11.18-2.36,19.32,0Z"/>
</svg>