<?xml version="1.0" encoding="UTF-8"?>
<svg id="Capa_1" data-name="Capa 1" xmlns="http://www.w3.org/2000/svg" viewBox="0 0 250 250">
  <defs>
    <style>
      .cls-1 {
        fill: #787b7f;
      }
    </style>
  </defs>
  <path class="cls-1" d="m124.8,166.98c-.01.17-.16.3-.33.29-13.58-.86-27.18-1.4-40.72-2.68-11.28-1.06-15.76-6.03-16.92-17.27-1.54-14.96-1.47-29.93-.05-44.89,1.08-11.37,5.98-16.44,17.38-17.67,18.71-2.03,37.49-2.46,56.27-1.63,9.37.41,18.76,1,28.05,2.24,8.55,1.15,12.62,5.53,13.93,14.08,2.49,16.38,2.47,32.83.23,49.23-1.44,10.54-5.61,14.86-16.14,15.85-12.38,1.17-24.84,1.48-37.26,2.15-1.38.07-2.76.02-4.14.01-.16,0-.3.13-.31.29h0Zm-11.51-59.23v34.24c0,.24.26.39.47.27,9.93-5.79,19.5-11.37,29.57-17.24.21-.12.21-.42,0-.54-10.04-5.77-19.57-11.25-29.57-16.99-.21-.12-.47.03-.47.27Z"/>
</svg>