<?xml version="1.0" encoding="UTF-8"?>
<svg id="Capa_1" data-name="Capa 1" xmlns="http://www.w3.org/2000/svg" viewBox="0 0 512 512">
  <defs>
    <style>
      .cls-1 {
        fill: #e16120;
      }

      .cls-1, .cls-2 {
        stroke-width: 0px;
      }

      .cls-2 {
        fill: #022454;
      }
    </style>
  </defs>
  <path class="cls-2" d="M0,15.85v420.26h164.33v30.05h-30.04v30h243.41v-30h-30.04v-30.05h164.33V15.85H0ZM317.67,466.15h-123.33v-30.05h123.33v30.05h0ZM482,406.1H30v-60.08h136.04c25.08,18.85,56.24,30.02,89.96,30.02s64.88-11.18,89.96-30.02h136.04v60.08h0ZM135.92,225.98c0-66.21,53.87-120.08,120.08-120.08s120.08,53.87,120.08,120.08-53.87,120.08-120.08,120.08-120.08-53.87-120.08-120.08ZM482,316.03h-106.01c18.89-25.1,30.1-56.29,30.1-90.05,0-82.75-67.32-150.08-150.08-150.08S105.92,143.22,105.92,225.98c0,33.76,11.21,64.95,30.1,90.05H30V45.85h452v270.18h0Z"/>
  <path class="cls-1" d="M347.02,240.98v-30h-26.82c-1.66-7.1-4.46-13.76-8.21-19.78l18.97-18.97-21.21-21.21-18.97,18.97c-6.02-3.75-12.68-6.55-19.78-8.21v-26.81h-30v26.81c-7.1,1.66-13.76,4.46-19.78,8.21l-18.97-18.97-21.21,21.21,18.97,18.97c-3.75,6.02-6.55,12.68-8.21,19.78h-26.82v30h26.82c1.66,7.1,4.46,13.76,8.21,19.78l-18.97,18.97,21.21,21.21,18.97-18.97c6.02,3.75,12.68,6.55,19.78,8.21v26.81h30v-26.81c7.1-1.66,13.76-4.46,19.78-8.21l18.97,18.97,21.21-21.21-18.97-18.97c3.75-6.02,6.55-12.68,8.21-19.78h26.82ZM256,261.92c-19.82,0-35.95-16.13-35.95-35.95s16.13-35.95,35.95-35.95,35.95,16.13,35.95,35.95c0,19.82-16.13,35.95-35.95,35.95Z"/>
</svg>