<?xml version="1.0" encoding="UTF-8"?>
<svg id="Capa_1" data-name="Capa 1" xmlns="http://www.w3.org/2000/svg" viewBox="0 0 512 512">
  <defs>
    <style>
      .cls-1 {
        fill: #e16120;
      }

      .cls-1, .cls-2 {
        stroke-width: 0px;
      }

      .cls-2 {
        fill: #022454;
      }
    </style>
  </defs>
  <path class="cls-2" d="M512,312v-112h-45.29c-4.96-18.7-12.39-36.56-22.17-53.34l32.08-32.08-79.2-79.2-32.08,32.08c-16.78-9.78-34.64-17.21-53.34-22.17V0h-112v45.29c-18.7,4.97-36.56,12.39-53.34,22.17l-32.08-32.08L35.38,114.58l32.08,32.08c-9.78,16.78-17.21,34.64-22.17,53.34H0v112h45.29c4.97,18.7,12.39,36.56,22.17,53.34l-32.08,32.08,79.2,79.2,32.08-32.08c16.78,9.78,34.64,17.21,53.34,22.17v45.29h112v-45.29c18.7-4.97,36.56-12.39,53.34-22.17l32.08,32.08,79.2-79.2-32.08-32.08c9.78-16.78,17.21-34.64,22.17-53.34h45.29ZM442.61,282l-2.47,11.98c-4.8,23.32-13.93,45.3-27.14,65.3l-6.74,10.21,27.93,27.93-36.77,36.77-27.93-27.93-10.21,6.74c-20.01,13.21-41.98,22.34-65.3,27.14l-11.98,2.47v39.39h-52v-39.39l-11.98-2.47c-23.32-4.8-45.29-13.93-65.3-27.14l-10.21-6.74-27.93,27.93-36.77-36.77,27.93-27.93-6.74-10.21c-13.21-20.01-22.34-41.98-27.14-65.3l-2.47-11.98H30v-52h39.39l2.47-11.98c4.8-23.32,13.93-45.29,27.14-65.3l6.74-10.21-27.93-27.93,36.77-36.77,27.93,27.93,10.21-6.74c20.01-13.21,41.98-22.34,65.3-27.14l11.97-2.47V30h52v39.39l11.98,2.47c23.32,4.8,45.3,13.93,65.3,27.14l10.21,6.74,27.93-27.93,36.77,36.77-27.93,27.93,6.74,10.21c13.21,20.01,22.34,41.98,27.14,65.3l2.47,11.98h39.39v52h-39.39Z"/>
  <path class="cls-2" d="M256,92.4c-90.21,0-163.6,73.39-163.6,163.6s73.39,163.6,163.6,163.6,163.6-73.39,163.6-163.6-73.39-163.6-163.6-163.6ZM256,381.63c-69.27,0-125.63-56.36-125.63-125.63s56.36-125.63,125.63-125.63,125.63,56.36,125.63,125.63-56.36,125.63-125.63,125.63Z"/>
  <path class="cls-1" d="M243.31,280.83c-16.57,0-31.64.44-46.66-.26-4.74-.22-10.82-2.31-13.45-5.73-1.6-2.08,1.31-8.93,3.74-12.62,24.19-36.78,48.54-73.46,73.36-109.81,2.7-3.96,8.69-5.68,13.15-8.43,1.02,5.37,3.71,11.05,2.76,16.04-4.07,21.45-9.21,42.7-14.42,66.08,16.09,0,30.68-.51,45.21.27,5.27.28,11.8,2.42,14.96,6.1,1.65,1.92-1.92,9.63-4.62,13.74-23.62,35.96-47.38,71.84-71.68,107.34-2.96,4.33-9.32,6.33-14.11,9.41-.8-5.84-3.15-11.97-2.13-17.48,3.89-20.98,8.87-41.76,13.89-64.65ZM205.59,263.92c14.76,0,26.56-.05,38.36.01,17.77.1,19.41,2.19,15.69,19.94-1.46,6.96-3.06,13.88-4.6,20.82.94.41,1.89.82,2.83,1.23,13.26-19.98,26.51-39.96,39.87-60.1-2.62-1.47-3.42-2.29-4.22-2.31-10.29-.16-20.58-.22-30.87-.27-19.63-.11-20.97-1.81-16.81-21.42,1.38-6.51,2.72-13.02,4.08-19.53-.84-.37-1.68-.75-2.52-1.12-13.17,19.76-26.34,39.52-41.81,62.75Z"/>
</svg>