<?xml version="1.0" encoding="UTF-8"?>
<svg id="Capa_1" data-name="Capa 1" xmlns="http://www.w3.org/2000/svg" viewBox="0 0 512 512">
  <defs>
    <style>
      .cls-1 {
        fill: #e16120;
      }

      .cls-1, .cls-2 {
        stroke-width: 0px;
      }

      .cls-2 {
        fill: #022454;
      }
    </style>
  </defs>
  <polygon class="cls-2" points="481.97 362.91 481.97 51.06 30.03 51.06 30.03 362.91 0 362.91 0 452.96 512 452.96 512 362.91 481.97 362.91"/>
  <polygon class="cls-1" points="60.03 81.06 451.97 81.06 451.97 362.91 307.59 362.91 307.59 319.48 362.64 284.6 362.64 141.32 272.59 111.3 272.59 225.1 256 235.61 239.41 225.1 239.41 111.3 149.36 141.32 149.36 284.6 204.41 319.48 204.41 362.91 60.03 362.91 60.03 81.06"/>
  <polygon class="cls-1" points="179.36 268.09 179.36 162.94 209.41 152.93 209.41 241.61 256 271.13 302.59 241.61 302.59 152.93 332.64 162.94 332.64 268.09 277.59 302.98 277.59 362.91 234.41 362.91 234.41 302.98 179.36 268.09"/>
  <polygon class="cls-1" points="482 422.96 30 422.96 30 392.91 482 392.91 482 422.96 482 422.96"/>
</svg>