<?xml version="1.0" encoding="UTF-8"?>
<svg id="Capa_1" data-name="Capa 1" xmlns="http://www.w3.org/2000/svg" viewBox="0 0 512 511.97">
  <defs>
    <style>
      .cls-1 {
        fill: #e16120;
      }

      .cls-1, .cls-2 {
        stroke-width: 0px;
      }

      .cls-2 {
        fill: #022454;
      }
    </style>
  </defs>
  <polygon class="cls-2" points="345.31 239.17 348.35 236.14 411.4 250.28 511.97 149.71 469.76 65.29 389.89 145.15 371.04 140.93 366.81 122.07 446.67 42.21 362.26 0 261.69 100.57 275.83 163.62 251.57 187.88 63.71 .02 .05 .02 .05 63.68 187.91 251.54 0 439.45 72.52 511.97 239.2 345.29 405.89 511.97 512 405.86 345.31 239.17"/>
  <polygon class="cls-1" points="308.7 173.16 294.57 110.11 368.18 36.5 396.04 50.43 333.93 112.53 345.93 166.04 399.44 178.03 461.54 115.93 475.47 143.79 401.86 217.4 338.81 203.26 302.88 239.19 272.78 209.09 308.7 173.16"/>
  <polygon class="cls-1" points="30.04 51.26 30.04 30.01 51.28 30.01 281.67 260.4 260.43 281.64 30.04 51.26"/>
  <rect class="cls-1" x="22.94" y="349.86" width="235.75" height="42.57" transform="translate(-221.2 208.27) rotate(-45)"/>
  <rect class="cls-1" x="319.96" y="262.1" width="90.08" height="205.74" transform="translate(-151.17 364.98) rotate(-45)"/>
</svg>